<svg width="394" height="151" viewBox="0 0 394 151" fill="none" xmlns="http://www.w3.org/2000/svg">
<path d="M2 2.46046L2.00362 1.54066L1.08019 1.53702V2.46046V4.75999V5.6798H2H4.96246C16.0576 6.33116 22.8539 8.17672 27.0128 12.0599C31.1469 15.92 32.8752 21.988 33.2736 31.6833V63.6279L33.2736 116.057L33.2736 116.059C33.2996 126.479 32.0771 133.02 28.952 137.294C25.8675 141.512 20.7796 143.714 12.4954 145.033L1.98001 145.261L1.08019 145.281V146.181V148.48V149.4H2H108.008C140 149.4 160.119 137.451 172.237 125.449C178.288 119.457 182.333 113.463 184.867 108.963C186.134 106.713 187.024 104.834 187.6 103.513C187.887 102.852 188.096 102.331 188.234 101.972C188.303 101.793 188.354 101.654 188.389 101.559C188.395 101.542 188.4 101.527 188.405 101.513C188.415 101.487 188.422 101.466 188.428 101.449L188.43 101.443L188.436 101.43C188.441 101.417 188.447 101.402 188.455 101.385C188.465 101.361 188.476 101.333 188.49 101.3C188.536 101.187 188.602 101.022 188.684 100.805C188.847 100.37 189.075 99.729 189.338 98.8867C189.862 97.202 190.526 94.7131 191.094 91.4669C192.229 84.9736 192.981 75.4539 191.474 63.2849C189.94 50.8956 180.328 35.5244 165.39 23.2785C150.422 11.008 129.985 1.77061 106.629 1.77061C83.5196 1.77061 57.3634 1.71312 36.9842 1.65563C26.7946 1.62689 18.0494 1.59815 11.8516 1.57659C8.75276 1.56581 6.29072 1.55683 4.60342 1.55054L2.67076 1.54324L2.17254 1.54132L2.04611 1.54083L2.01427 1.5407L2.00629 1.54067L2.00429 1.54066C2.00384 1.54066 2.00362 1.54066 2 2.46046Z" stroke="#D8AD6C" stroke-width="1.83962"/>
<path d="M64.0873 3.84024H63.1675V4.76005V145.951V146.871H64.0873H100.19H100.207L100.225 146.87C116.988 146.236 128.852 143.808 137.559 136.988C146.267 130.166 151.646 119.085 155.804 101.593C155.811 101.572 155.82 101.545 155.83 101.511C155.855 101.431 155.89 101.315 155.932 101.16C156.017 100.851 156.133 100.385 156.268 99.7387C156.538 98.4467 156.88 96.4321 157.184 93.502C157.794 87.6426 158.254 78.1121 157.677 63.3621C156.513 33.5585 132.303 3.84024 101.34 3.84024H64.0873Z" stroke="#D8AD6C" stroke-width="1.83962"/>
<path d="M191.478 1.31068L190.561 1.31404V2.23048V4.53001V5.41748L191.448 5.44923C203.128 5.86748 210.611 7.81859 215.191 11.7512C219.72 15.6406 221.605 21.6484 221.605 30.7446V63.3979V119.718C221.252 128.691 219.781 134.335 216.402 138.068C213.03 141.794 207.589 143.801 198.776 145.031H191.711H190.791V145.951V148.48V149.403L191.713 149.4L283.005 149.17L283.922 149.168V148.251V145.721V144.801H283.002H277.524C267.869 143.945 262.154 141.888 258.605 138.076C255.042 134.249 253.487 128.475 252.649 119.693V5.44982H301.629C337.401 5.44982 349.118 44.2506 329.964 62.7361C320.152 72.206 310.919 77.9019 304.155 81.2274C300.772 82.8903 298.006 83.9607 296.093 84.6137C295.136 84.9402 294.393 85.1624 293.893 85.3021C293.642 85.3719 293.453 85.4211 293.328 85.4525C293.265 85.4682 293.219 85.4794 293.189 85.4865L293.157 85.494L293.15 85.4956L293.149 85.4956L293.149 85.4958L293.149 85.4958L291.792 85.7993L292.603 86.9295L336.984 148.787L337.259 149.17H337.731H392H392.92V148.251V145.721V144.801H392H381.238C376.223 144.297 372.529 143.366 369.119 141.286C365.686 139.191 362.461 135.882 358.486 130.47L337.808 100.603L337.808 100.602L337.807 100.601L337.803 100.594L337.798 100.587L337.787 100.57L337.723 100.474L337.482 100.108L336.616 98.7992C336.301 98.3227 335.939 97.7752 335.549 97.1859C335.05 96.4312 334.506 95.6079 333.957 94.7776C332.466 92.5213 330.946 90.2208 330.207 89.0972C330.569 88.8809 331.063 88.6064 331.686 88.2603C331.857 88.1652 332.038 88.0647 332.229 87.9585C334.077 86.9287 336.719 85.4269 339.742 83.3798C345.782 79.2881 353.363 73.0027 359.201 63.8943C365.145 54.6226 366.231 38.8821 359.645 25.4996C353.015 12.0255 338.647 0.989801 313.813 1.08078C289.298 1.17058 270.974 1.18315 252.648 1.19573L252.648 1.19573C234.322 1.2083 215.995 1.22087 191.478 1.31068Z" stroke="#D8AD6C" stroke-width="1.83962"/>
</svg>
